#!OML:ASF I:\Actors\actors\Patient Classification 2\Patient 1\Session 1\actor1.ASF
:FULLY-SPECIFIED
:DEGREES
638
root -1.79042 18.3409 5.18159 0.342437 18.9921 -4.38473
lowerback 21.0855 1.21383 2.5236
upperback 5.47553 2.20688 0.418647
thorax -5.73548 1.08081 -1.55015
lowerneck -0.221425 -17.9278 -18.4268
upperneck 0.270183 -24.7187 20.1982
head 4.98227 -12.2278 6.9551
rclavicle 2.54444e-014 3.57812e-015
rhumerus -46.2971 50.9289 -126.437
rradius 133.481
rwrist 17.6475
rhand -31.8404 -6.1742
rfingers 7.12502
rthumb -5.09463 -36.093
lclavicle 2.54444e-014 3.57812e-015
lhumerus -41.3061 -40.3474 126.92
lradius 122.334
lwrist 8.95153
lhand -34.4819 -72.1942
lfingers 7.12502
lthumb -7.6447 -42.3524
rfemur -5.00287 -10.8616 22.729
rtibia 24.2615
rfoot -29.0436 -12.5058
rtoes -6.90149
lfemur -21.6915 -16.6398 -7.14582
ltibia 36.7976
lfoot -18.8818 -0.51373
ltoes -59.4356
639
root -1.82133 18.3472 5.1969 0.408476 18.8074 -4.24486
lowerback 20.8783 1.09831 2.04312
upperback 5.50936 1.95217 0.455558
thorax -5.62027 0.962612 -1.16714
lowerneck 0.975048 -18.6252 -18.9625
upperneck -0.521127 -25.8253 21.0142
head 4.9496 -12.8495 7.17624
rclavicle 2.49475e-014 6.16232e-015
rhumerus -46.1075 51.0695 -126.113
rradius 133.314
rwrist 17.1803
rhand -31.5105 -5.82838
rfingers 7.12502
rthumb -4.77605 -35.7545
lclavicle 2.49475e-014 6.16232e-015
lhumerus -41.5534 -40.0685 126.753
lradius 122.839
lwrist 8.93908
lhand -34.4499 -72.1676
lfingers 7.12502
lthumb -7.61388 -42.3246
rfemur -5.00049 -10.4719 22.7013
rtibia 24.2081
rfoot -28.9768 -12.5967
rtoes -6.70821
lfemur -21.5509 -16.0536 -7.16001
ltibia 36.7545
lfoot -19.2686 -0.938552
ltoes -59.3761
640
root -1.84834 18.3561 5.216 0.521332 18.4845 -4.05804
lowerback 20.465 0.943352 1.26508
upperback 5.65152 1.58717 0.552851
thorax -5.2886 0.7943 -0.518675
lowerneck 1.9866 -19.2617 -19.3937
upperneck -1.32848 -26.8222 21.828
head 4.92229 -13.4127 7.38141
rclavicle -4.83047e-014 2.96189e-014
rhumerus -45.7054 51.4605 -125.388
rradius 133.086
rwrist 16.5324
rhand -31.1659 -5.57706
rfingers 7.12502
rthumb -4.44333 -35.5104
lclavicle -4.83047e-014 2.96189e-014
lhumerus -42.2384 -39.6286 126.478
lradius 124.108
lwrist 8.76525
lhand -34.2732 -71.9857
lfingers 7.12502
lthumb -7.44324 -42.1366
rfemur -4.94268 -9.99385 22.6224
rtibia 23.9998
rfoot -28.9307 -12.6895
rtoes -6.55407
lfemur -21.3635 -15.3041 -7.21841
ltibia 36.7673
lfoot -19.8234 -0.922964
ltoes -59.1919
641
root -1.86779 18.366 5.24374 0.6973 17.9834 -3.95894
lowerback 20.2803 0.646301 0.548525
upperback 5.48299 1.04881 0.515518
thorax -5.39454 0.533059 -0.0185728
lowerneck 3.34858 -19.672 -19.445
upperneck -2.23352 -27.5332 22.5672
head 4.70281 -13.8694 7.62613
rclavicle -4.13472e-014 4.77083e-015
rhumerus -45.9599 51.7179 -125.487
rradius 132.673
rwrist 15.9592
rhand -30.6532 -5.58275
rfingers 7.12502
rthumb -3.94828 -35.5259
lclavicle -4.13472e-014 4.77083e-015
lhumerus -42.6846 -38.8059 126.012
lradius 124.643
lwrist 8.02344
lhand -33.9901 -71.8034
lfingers 7.12502
lthumb -7.16999 -41.9449
rfemur -4.83043 -9.43204 22.6225
rtibia 23.5452
rfoot -28.7401 -12.7386
rtoes -6.20258
lfemur -21.1223 -14.3823 -7.1884
ltibia 36.8425
lfoot -20.6818 0.180568
ltoes -58.8311
642
root -1.87759 18.3806 5.27562 0.783256 17.3808 -4.05182
lowerback 20.0512 0.214458 -0.0787976
upperback 5.38197 0.355713 0.505785
thorax -5.38836 0.197561 0.497647
lowerneck 4.54012 -20.0483 -19.3443
upperneck -3.24225 -28.1424 23.3186
head 4.4481 -14.2775 7.86894
rclavicle 1.17283e-014 -1.98785e-015
rhumerus -46.5055 52.049 -125.895
rradius 132.247
rwrist 15.3034
rhand -29.93 -5.36335
rfingers 7.12502
rthumb -3.24985 -35.3183
lclavicle 1.17283e-014 -1.98785e-015
lhumerus -43.3698 -37.2038 125.326
lradius 125.254
lwrist 6.48203
lhand -33.5377 -71.9209
lfingers 7.12502
lthumb -6.73334 -42.048
rfemur -4.4846 -8.84574 22.7798
rtibia 22.7578
rfoot -28.2874 -12.791
rtoes -5.85434
lfemur -20.7169 -13.3473 -6.97026
ltibia 36.9449
lfoot -21.4896 1.81086
ltoes -58.4672
643
root -1.87518 18.4044 5.31081 0.741189 16.6389 -4.30219
lowerback 19.6687 -0.231228 -0.824145
upperback 5.43442 -0.361088 0.70835
thorax -5.11706 -0.150868 1.30819
lowerneck 5.27404 -20.5673 -19.3632
upperneck -3.88493 -28.9052 23.699
head 4.36155 -14.7197 7.92329
rclavicle 4.63168e-014 -2.70347e-014
rhumerus -46.8635 52.4708 -125.705
rradius 131.856
rwrist 14.4238
rhand -29.5048 -4.80084
rfingers 7.12502
rthumb -2.83927 -34.7617
lclavicle 4.63168e-014 -2.70347e-014
lhumerus -44.1543 -34.9271 124.745
lradius 125.889
lwrist 4.50191
lhand -33.1691 -72.5822
lfingers 7.12502
lthumb -6.37745 -42.6982
rfemur -3.83272 -8.30179 23.024
rtibia 21.5958
rfoot -27.6224 -12.7773
rtoes -5.60256
lfemur -20.1043 -12.4745 -6.55928
ltibia 37.0029
lfoot -21.6942 2.76731
ltoes -58.4126
644
root -1.85531 18.4321 5.35378 0.575622 15.6417 -4.67564
lowerback 19.494 -0.698051 -1.39883
upperback 5.31744 -1.0753 0.869104
thorax -5.1149 -0.498887 1.97298
lowerneck 6.23931 -21.0581 -19.4914
upperneck -4.25367 -29.6973 23.8833
head 4.30935 -15.1795 7.9459
rclavicle 5.46658e-014 -2.8625e-014
rhumerus -47.0613 52.6585 -125.39
rradius 131.282
rwrist 13.0407
rhand -29.3015 -4.17871
rfingers 7.12502
rthumb -2.64288 -34.1421
lclavicle 5.46658e-014 -2.8625e-014
lhumerus -45.1989 -33.045 123.949
lradius 126.833
lwrist 3.4611
lhand -32.675 -72.8739
lfingers 7.12502
lthumb -5.90047 -42.976
rfemur -2.87257 -7.76475 23.2891
rtibia 20.0827
rfoot -26.7814 -12.6303
rtoes -5.42733
lfemur -19.1699 -12.0809 -5.9962
ltibia 36.9144
lfoot -21.1648 2.42175
ltoes -58.4291
645
root -1.81883 18.454 5.3998 0.139637 14.3907 -5.16598
lowerback 19.529 -1.15291 -1.87527
upperback 5.25615 -1.75524 1.05354
thorax -5.14705 -0.830313 2.60142
lowerneck 7.09649 -21.5059 -19.8838
upperneck -4.38397 -30.4785 24.1113
head 4.3934 -15.6174 7.97859
rclavicle -4.35338e-014 4.05521e-014
rhumerus -47.6277 52.8269 -125.366
rradius 130.783
rwrist 11.3075
rhand -28.8306 -3.58055
rfingers 7.12502
rthumb -2.18813 -33.5491
lclavicle -4.35338e-014 4.05521e-014
lhumerus -46.4458 -30.8255 123.065
lradius 128.038
lwrist 3.51041
lhand -31.5186 -72.7093
lfingers 7.12502
lthumb -4.78391 -42.7833
rfemur -1.48658 -7.23284 23.5654
rtibia 18.2996
rfoot -25.6788 -12.405
rtoes -5.70015
lfemur -17.6956 -12.1999 -5.37658
ltibia 36.573
lfoot -20.0263 1.21801
ltoes -58.5105
646
root -1.77283 18.4699 5.44203 -0.426015 12.8246 -5.70482
lowerback 19.7466 -1.5713 -2.09805
upperback 5.18878 -2.35278 1.08048
thorax -5.28823 -1.12036 2.90564
lowerneck 7.41043 -21.8828 -20.1102
upperneck -3.80163 -31.1496 23.8973
head 4.64759 -15.9418 7.8034
rclavicle 3.83654e-014 -7.95139e-015
rhumerus -48.7664 52.6595 -125.989
rradius 130.436
rwrist 9.52155
rhand -28.0359 -2.93227
rfingers 7.12502
rthumb -1.42054 -32.9073
lclavicle 3.83654e-014 -7.95139e-015
lhumerus -47.8466 -28.6185 121.89
lradius 128.929
lwrist 3.82307
lhand -30.6995 -72.9161
lfingers 7.12502
lthumb -3.99301 -42.9737
rfemur 0.0815815 -6.5938 23.8515
rtibia 16.4075
rfoot -24.3234 -12.1895
rtoes -6.7727
lfemur -15.8373 -12.5018 -4.80807
ltibia 35.9189
lfoot -18.9174 0.318401
ltoes -59.4858
647
root -1.72033 18.4829 5.48197 -0.910091 10.9286 -6.14578
lowerback 20.2049 -1.86979 -2.235
upperback 4.88487 -2.7948 0.977809
thorax -5.82688 -1.32321 3.00766
lowerneck 7.84132 -21.9582 -19.888
upperneck -3.32561 -31.3355 23.3005
head 4.61374 -16.0398 7.62878
rclavicle 1.63003e-014 -1.90833e-014
rhumerus -50.219 52.0387 -127.04
rradius 130.115
rwrist 7.4551
rhand -27.1367 -2.79343
rfingers 7.12502
rthumb -0.552158 -32.7725
lclavicle 1.63003e-014 -1.90833e-014
lhumerus -49.6268 -26.5041 120.851
lradius 129.291
lwrist 4.01197
lhand -30.9852 -72.2344
lfingers 7.12502
lthumb -4.26885 -42.2974
rfemur 1.51538 -5.78933 24.0325
rtibia 14.6609
rfoot -22.9754 -11.8713
rtoes -7.78959
lfemur -13.9039 -12.5639 -4.46144
ltibia 34.9891
lfoot -19.3822 0.321794
ltoes -59.8832
648
root -1.65977 18.4919 5.51815 -1.33313 8.75233 -6.314
lowerback 19.4582 -1.93379 -2.78786
upperback 5.34304 -2.9772 0.947949
thorax -4.90165 -1.43917 3.28142
lowerneck 8.18653 -21.8861 -19.6081
upperneck -4.02264 -31.1779 23.4834
head 4.31178 -16.0111 7.76855
rclavicle 3.06128e-014 8.74653e-015
rhumerus -49.8204 52.0502 -126.555
rradius 129.777
rwrist 5.23389
rhand -26.6111 -3.33641
rfingers 7.12502
rthumb -0.0444594 -33.3161
lclavicle 3.06128e-014 8.74653e-015
lhumerus -50.0738 -25.0469 119.552
lradius 129.232
lwrist 4.36505
lhand -31.8499 -70.0147
lfingers 7.12502
lthumb -5.10376 -40.0961
rfemur 2.76101 -4.84317 23.905
rtibia 13.2755
rfoot -21.7708 -11.3477
rtoes -8.16111
lfemur -11.917 -11.8253 -4.54409
ltibia 33.8522
lfoot -19.6764 1.99953
ltoes -60.5687
649
root -1.59537 18.4987 5.53872 -1.58597 6.37293 -6.20996
lowerback 18.891 -1.85233 -3.6147
upperback 5.61653 -3.01857 0.899761
thorax -4.26428 -1.48239 3.67089
lowerneck 8.14878 -21.7561 -19.4556
upperneck -4.22602 -30.9562 23.489
head 4.1908 -15.9089 7.81256
rclavicle 1.15295e-014 -3.33958e-014
rhumerus -49.6107 52.02 -126.44
rradius 129.456
rwrist 3.46067
rhand -26.5214 -3.97267
rfingers 7.12502
rthumb 0.0421208 -33.9524
lclavicle 1.15295e-014 -3.33958e-014
lhumerus -50.3951 -23.3513 118.299
lradius 129.014
lwrist 4.76164
lhand -31.7703 -69.0119
lfingers 7.12502
lthumb -5.02696 -39.0916
rfemur 3.55217 -3.668 23.5318
rtibia 12.396
rfoot -20.7153 -10.8008
rtoes -8.77498
lfemur -10.034 -10.1597 -4.95674
ltibia 32.6423
lfoot -19.9227 2.14835
ltoes -59.6889
